<svg xmlns="http://www.w3.org/2000/svg" overflow="visible" width="32" height="32" viewBox="0 0 25.600005 25.600001" fill-rule="evenodd" stroke-width=".501" stroke-linejoin="bevel"><script id="script3301"/><script id="script3299"/><defs id="defs4"><marker id="DefaultArrow2" viewBox="0 0 1 1" markerWidth="1" markerHeight="1" overflow="visible" orient="auto"><g id="g7"><path d="M-.083.5v-1l1.166.5z" id="path9"/></g></marker><marker id="DefaultArrow3" viewBox="0 0 1 1" markerWidth="1" markerHeight="1" overflow="visible" orient="auto"><g id="g12"><path d="M-.25.5l.167-.5-.167-.5 1.5.5z" id="path14"/></g></marker><marker id="DefaultArrow4" viewBox="0 0 1 1" markerWidth="1" markerHeight="1" overflow="visible" orient="auto"><g id="g17"><path d="M-.083 0v-.417c0-.062.11-.107.166-.083l1 .417c.037.015.084.044.084.083 0 .04-.047.068-.084.083L.083.5C.026.524-.083.48-.083.417z" id="path19"/></g></marker><marker id="DefaultArrow5" viewBox="0 0 1 1" markerWidth="1" markerHeight="1" overflow="visible" orient="auto"><g id="g22"><path d="M-.5 0c0 .276.224.5.5.5S.5.276.5 0 .276-.5 0-.5s-.5.224-.5.5z" id="path24"/></g></marker><marker id="DefaultArrow6" viewBox="0 0 1 1" markerWidth="1" markerHeight="1" overflow="visible" orient="auto"><g id="g27"><path d="M-.583 0L0 .583.583 0 0-.583z" id="path29"/></g></marker><marker id="DefaultArrow7" viewBox="0 0 1 1" markerWidth="1" markerHeight="1" overflow="visible" orient="auto"><g id="g32"><path d="M.167-.5H1L.583 0 1 .5H.167l-.5-.5z" id="path34"/></g></marker><marker id="DefaultArrow8" viewBox="0 0 1 1" markerWidth="1" markerHeight="1" overflow="visible" orient="auto"><g id="g37"><path d="M-.333 0l.5-.5H.5l-.333.333H.25L.583-.5h.334l-.334.333h.084L1-.5h.333l-.5.5.5.5H1L.667.167H.583L.917.5H.583L.25.167H.167L.5.5H.167z" id="path39"/></g></marker><marker id="DefaultArrow9" viewBox="0 0 1 1" markerWidth="1" markerHeight="1" overflow="visible" orient="auto"><g id="g42"><path d="M0 .417L-.417 0 0-.417.417 0zm0 .166L-.583 0 0-.583.583 0z" id="path44"/></g></marker><filter id="StainedFilter" color-interpolation-filters="sRGB"><feBlend mode="multiply" in2="BackgroundImage" in="SourceGraphic" result="blend" id="feBlend47"/><feComposite in="blend" in2="SourceAlpha" operator="in" result="comp" id="feComposite49"/></filter><filter id="BleachFilter" color-interpolation-filters="sRGB"><feBlend mode="screen" in2="BackgroundImage" in="SourceGraphic" result="blend" id="feBlend52"/><feComposite in="blend" in2="SourceAlpha" operator="in" result="comp" id="feComposite54"/></filter><filter id="InvertTransparencyBitmapFilter" color-interpolation-filters="sRGB"><feComponentTransfer id="feComponentTransfer57"><feFuncR type="gamma" amplitude="1.055" exponent=".417" offset="-.055" id="feFuncR59"/><feFuncG type="gamma" amplitude="1.055" exponent=".417" offset="-.055" id="feFuncG61"/><feFuncB type="gamma" amplitude="1.055" exponent=".417" offset="-.055" id="feFuncB63"/></feComponentTransfer><feComponentTransfer id="feComponentTransfer65"><feFuncR type="linear" slope="-1" intercept="1" id="feFuncR67"/><feFuncG type="linear" slope="-1" intercept="1" id="feFuncG69"/><feFuncB type="linear" slope="-1" intercept="1" id="feFuncB71"/><feFuncA type="linear" id="feFuncA73"/></feComponentTransfer><feComponentTransfer id="feComponentTransfer75"><feFuncR type="gamma" exponent="2.4" id="feFuncR77"/><feFuncG type="gamma" exponent="2.4" id="feFuncG79"/><feFuncB type="gamma" exponent="2.4" id="feFuncB81"/></feComponentTransfer></filter><radialGradient id="RadialGradient" gradientUnits="userSpaceOnUse" cx="0" cy="0" r="237.428" gradientTransform="matrix(0 -1 .886 0 172.174 122.358)"><stop offset="0" stop-color="#473600" id="stop84"/><stop offset=".792" stop-color="#3d2f00" id="stop86"/><stop offset=".99" stop-color="#3a2c00" id="stop88"/><stop offset="1" stop-color="#3a2c00" id="stop90"/></radialGradient><radialGradient id="RadialGradient_1" gradientUnits="userSpaceOnUse" cx="0" cy="0" r="237.428" gradientTransform="matrix(0 -1 .886 0 170.916 119.88)"><stop offset="0" stop-color="#553e00" id="stop93"/><stop offset=".792" stop-color="#403200" id="stop95"/><stop offset=".99" stop-color="#3b2b00" id="stop97"/><stop offset="1" stop-color="#3b2b00" id="stop99"/></radialGradient><radialGradient id="RadialGradient_2" gradientUnits="userSpaceOnUse" cx="0" cy="0" r="237.428" gradientTransform="matrix(0 -1 .886 0 169.66 117.403)"><stop offset="0" stop-color="#634700" id="stop102"/><stop offset=".792" stop-color="#443400" id="stop104"/><stop offset=".99" stop-color="#3c2a00" id="stop106"/><stop offset="1" stop-color="#3c2a00" id="stop108"/></radialGradient><radialGradient id="RadialGradient_3" gradientUnits="userSpaceOnUse" cx="0" cy="0" r="237.428" gradientTransform="matrix(0 -1 .886 0 168.403 114.925)"><stop offset="0" stop-color="#724f00" id="stop111"/><stop offset=".792" stop-color="#473600" id="stop113"/><stop offset=".99" stop-color="#3c2900" id="stop115"/><stop offset="1" stop-color="#3c2900" id="stop117"/></radialGradient><radialGradient id="RadialGradient_4" gradientUnits="userSpaceOnUse" cx="0" cy="0" r="237.428" gradientTransform="matrix(0 -1 .886 0 167.146 112.448)"><stop offset="0" stop-color="#805800" id="stop120"/><stop offset=".792" stop-color="#4b3800" id="stop122"/><stop offset=".99" stop-color="#3d2800" id="stop124"/><stop offset="1" stop-color="#3d2800" id="stop126"/></radialGradient><radialGradient id="RadialGradient_5" gradientUnits="userSpaceOnUse" cx="0" cy="0" r="237.428" gradientTransform="matrix(0 -1 .886 0 165.889 109.97)"><stop offset="0" stop-color="#8e6000" id="stop129"/><stop offset=".792" stop-color="#4e3b00" id="stop131"/><stop offset=".99" stop-color="#3e2700" id="stop133"/><stop offset="1" stop-color="#3e2700" id="stop135"/></radialGradient><radialGradient id="RadialGradient_6" gradientUnits="userSpaceOnUse" cx="0" cy="0" r="237.428" gradientTransform="matrix(0 -1 .886 0 164.632 107.493)"><stop offset="0" stop-color="#9c6900" id="stop138"/><stop offset=".792" stop-color="#523d00" id="stop140"/><stop offset=".99" stop-color="#3f2600" id="stop142"/><stop offset="1" stop-color="#3f2600" id="stop144"/></radialGradient><linearGradient id="LinearGradient" gradientUnits="userSpaceOnUse" x2="42.75" y2="36.75" gradientTransform="translate(218.601 165.399)"><stop offset="0" stop-color="#5c5c5c" id="stop147"/><stop offset="1" id="stop149"/></linearGradient><linearGradient id="LinearGradient_1" gradientUnits="userSpaceOnUse" x2="-9.672" y2="-141.858" gradientTransform="translate(181.122 157.792)"><stop offset="0" stop-color="#fff" id="stop152"/><stop offset="1" stop-color="#cfd1d2" id="stop154"/></linearGradient><linearGradient id="LinearGradient_2" gradientUnits="userSpaceOnUse" x2="69.75" y2="-189.75" gradientTransform="translate(259.851 172.899)"><stop offset="0" stop-color="#b5b5b5" id="stop157"/><stop offset="1" id="stop159"/></linearGradient><linearGradient id="LinearGradient_3" gradientUnits="userSpaceOnUse" x2="-51.527" y2="-64.41" gradientTransform="translate(204.11 87.059)"><stop offset="0" stop-color="#df9000" id="stop162"/><stop offset=".73" stop-color="#7f5200" id="stop164"/><stop offset=".99" stop-color="#3f2600" id="stop166"/><stop offset="1" stop-color="#3f2600" id="stop168"/></linearGradient><linearGradient id="LinearGradient_4" gradientUnits="userSpaceOnUse" x2="19.041" y2="85.19" gradientTransform="translate(199.945 96.333)"><stop offset="0" stop-color="#ba7d00" id="stop171"/><stop offset=".792" stop-color="#7f5200" id="stop173"/><stop offset=".99" stop-color="#3f2600" id="stop175"/><stop offset="1" stop-color="#3f2600" id="stop177"/></linearGradient><linearGradient id="LinearGradient_5" gradientUnits="userSpaceOnUse" x2="-1.007" y2="-63.536" gradientTransform="translate(129.134 111.014)"><stop offset="0" stop-color="#df9000" id="stop180"/><stop offset=".792" stop-color="#7f5200" id="stop182"/><stop offset=".99" stop-color="#3f2600" id="stop184"/><stop offset="1" stop-color="#3f2600" id="stop186"/></linearGradient><linearGradient id="LinearGradient_6" gradientUnits="userSpaceOnUse" x2="15.098" y2="58.375" gradientTransform="translate(129.286 104.867)"><stop offset="0" stop-color="#df9000" id="stop189"/><stop offset=".792" stop-color="#7f5200" id="stop191"/><stop offset=".99" stop-color="#3f2600" id="stop193"/><stop offset="1" stop-color="#3f2600" id="stop195"/></linearGradient><radialGradient id="RadialGradient_7" gradientUnits="userSpaceOnUse" cx="0" cy="0" r="38.717" gradientTransform="matrix(.697 -.717 1.232 1.199 183.351 196.899)"><stop offset="0" stop-color="#6b4c29" id="stop198"/><stop offset="1" stop-color="#a57348" id="stop200"/></radialGradient><radialGradient id="RadialGradient_8" gradientUnits="userSpaceOnUse" cx="0" cy="0" r="120.999" gradientTransform="matrix(0 -1 .974 0 134.346 314.993)"><stop offset="0" stop-color="#e0bf9e" id="stop203"/><stop offset=".017" stop-color="#e0bf9e" id="stop205"/><stop offset=".202" stop-color="#e6b891" id="stop207"/><stop offset="1" stop-color="#7b5d39" id="stop209"/></radialGradient><radialGradient id="RadialGradient_9" gradientUnits="userSpaceOnUse" cx="0" cy="0" r="87.054" gradientTransform="matrix(-.014 -1 1.206 -.017 146.601 370.899)"><stop offset="0" stop-color="#9a9a9a" id="stop212"/><stop offset="1" stop-color="#313131" id="stop214"/></radialGradient><linearGradient id="LinearGradient_7" gradientUnits="userSpaceOnUse" x2="-54" y2="-87" gradientTransform="translate(213.351 257.649)"><stop offset="0" stop-color="#484848" id="stop217"/><stop offset="1" id="stop219"/></linearGradient><linearGradient id="LinearGradient_8" gradientUnits="userSpaceOnUse" x2="10.5" y2="-85.5" gradientTransform="translate(133.101 343.149)"><stop offset="0" stop-color="#8d8d8d" id="stop222"/><stop offset="1" id="stop224"/></linearGradient><linearGradient id="LinearGradient_9" gradientUnits="userSpaceOnUse" x2="3.6" y2="-129" gradientTransform="translate(239.24 380.259)"><stop offset="0" stop-color="#fff" id="stop227"/><stop offset="1" id="stop229"/></linearGradient><linearGradient id="LinearGradient_10" gradientUnits="userSpaceOnUse" x2="108" y2="-33.75" gradientTransform="translate(115.007 352.336)"><stop offset="0" stop-color="#fff" id="stop232"/><stop offset="1" id="stop234"/></linearGradient><linearGradient id="LinearGradient_11" gradientUnits="userSpaceOnUse" x2="-51.527" y2="-64.41" gradientTransform="translate(226.61 87.059)"><stop offset="0" stop-color="#df9000" id="stop237"/><stop offset=".73" stop-color="#7f5200" id="stop239"/><stop offset=".99" stop-color="#3f2600" id="stop241"/><stop offset="1" stop-color="#3f2600" id="stop243"/></linearGradient></defs><g id="g3422" fill-rule="evenodd"><path id="path3424" d="M0 23.262V2.338C0 1.048 1.047 0 2.338 0h20.924c1.29 0 2.338 1.05 2.338 2.338v20.924c0 1.29-1.048 2.338-2.338 2.338H2.338C1.048 25.6 0 24.552 0 23.262zm24.8 0V2.338C24.8 1.49 24.11.8 23.262.8H2.338C1.49.8.8 1.49.8 2.338v20.924c0 .848.69 1.538 1.538 1.538h20.924c.847 0 1.538-.69 1.538-1.538z"/><path id="path3426" d="M3.2 19.604V6c0-.22.18-.4.4-.4l1.198.002H22c.22 0 .4.18.4.4v13.6c0 .22-.18.4-.4.4H5.905c-.002.002-.004.002-.006.002H3.6c-.22 0-.4-.18-.4-.4zm16.1-.002v-1.1l-4.1-4.1-.103-.092-2.013 2.047c-.157.16-.414.16-.57 0L10.5 14.31l-.1.092-4.1 4.1v1.102l-.002.026h13v-.028zm-13.8-.4V9.53c0-.22.18-.4.4-.4h.46c.107 0 .21.043.285.12l6.154 6.26 6.153-6.26c.076-.077.178-.12.286-.12h.46c.22 0 .4.18.4.4v9.674h1.5v-12.8h-2.194l-6.322 6.43c-.157.16-.414.16-.57 0l-6.322-6.43H4v12.8h1.5zm.8-1.47l.1-.13 3.7-3.7-3.8-3.864v7.694zm13 0v-7.696L15.497 13.9l3.7 3.702.1.13zm-6.5-5.75l5.905-6.01H6.89l5.91 6.01z"/></g></svg>